<!DOCTYPE svg PUBLIC "-//W3C//DTD SVG 20010904//EN" "http://www.w3.org/TR/2001/REC-SVG-20010904/DTD/svg10.dtd">
<svg version="1.0" xmlns="http://www.w3.org/2000/svg" width="554px" height="390px" viewBox="0 0 5540 3900" preserveAspectRatio="xMidYMid meet">
<g id="layer101" fill="#da941c" stroke="none">
 <path d="M3070 3651 c-197 -29 -318 -63 -455 -127 -39 -18 -82 -38 -95 -44 -14 -5 -43 -21 -65 -35 -22 -14 -56 -34 -75 -45 -51 -29 -166 -113 -200 -145 l-28 -27 -238 1 c-216 0 -244 -2 -296 -20 l-57 -21 -65 26 c-60 24 -75 26 -228 26 -142 0 -171 -3 -225 -22 -60 -21 -64 -21 -114 -5 -37 13 -87 17 -183 17 -122 -1 -411 -22 -420 -31 -2 -2 -6 -130 -8 -284 -3 -275 -3 -281 20 -323 31 -57 91 -112 149 -135 28 -11 86 -21 141 -24 80 -5 92 -8 86 -22 -6 -16 -33 -128 -34 -143 0 -5 556 -8 1236 -8 l1237 0 61 -22 c34 -12 63 -25 66 -28 3 -3 19 -12 36 -19 17 -6 54 -34 82 -62 110 -106 162 -247 162 -436 l0 -103 -1433 0 c-789 0 -1436 -2 -1439 -5 -5 -5 6 -62 33 -167 l12 -48 1541 -3 c1381 -2 1546 -4 1591 -19 67 -21 139 -63 172 -100 16 -17 40 -42 56 -56 15 -14 38 -44 52 -67 49 -84 57 -122 62 -282 l5 -153 -1062 0 c-645 0 -1060 -4 -1058 -9 6 -17 310 -251 325 -251 5 0 24 -10 43 -23 97 -64 370 -162 541 -194 120 -22 445 -30 544 -13 339 59 564 151 805 329 19 14 39 29 45 33 33 23 150 134 210 198 95 103 225 291 264 383 10 23 28 62 39 87 33 72 70 171 82 220 75 300 85 492 40 780 -12 77 -57 241 -76 279 -8 14 -14 31 -14 38 0 6 -17 49 -39 95 -21 46 -41 90 -45 98 -18 39 -76 130 -135 210 -58 80 -176 216 -226 261 -150 134 -369 269 -550 339 -33 13 -73 29 -90 35 -16 7 -50 16 -75 20 -25 4 -61 13 -80 20 -54 20 -285 45 -406 44 -60 -1 -161 -9 -224 -18z m595 -415 c18 -8 47 -33 63 -55 31 -43 226 -576 217 -592 -9 -14 -151 -11 -163 4 -5 6 -27 68 -47 137 -42 143 -51 163 -59 140 -3 -8 -28 -76 -54 -150 l-49 -135 -78 -3 c-43 -2 -82 1 -86 5 -5 5 34 112 86 238 52 127 95 240 95 252 0 28 -14 37 -75 43 l-50 5 -3 49 c-2 27 -1 55 2 62 7 19 155 19 201 0z m-617 -78 l3 -78 110 0 c126 0 169 -14 200 -64 16 -27 19 -52 19 -191 0 -179 -9 -208 -71 -241 -45 -23 -161 -15 -220 14 l-44 22 -15 -21 c-14 -17 -25 -20 -80 -17 l-65 3 -3 315 c-1 173 0 321 3 328 3 9 26 12 82 10 l78 -3 3 -77z m-2175 -82 c18 -7 43 -26 57 -41 23 -24 25 -35 25 -110 0 -75 -2 -86 -25 -110 -41 -44 -60 -49 -180 -55 -107 -5 -115 -6 -115 -25 0 -19 8 -20 135 -25 l135 -5 3 -62 3 -63 -171 0 c-193 0 -227 8 -260 62 -14 24 -20 50 -20 95 0 125 27 146 200 153 l125 5 0 25 0 25 -155 -1 c-105 -1 -157 2 -162 10 -12 17 -9 104 3 112 13 8 175 20 292 23 47 0 90 -4 110 -13z m585 -6 c52 -32 62 -69 62 -236 0 -240 -14 -254 -255 -254 -242 0 -255 13 -255 255 0 242 13 255 255 255 143 0 164 -2 193 -20z m385 1 c5 -5 7 -32 5 -62 -3 -53 -3 -54 -38 -59 l-35 -5 -5 -260 c-3 -143 -7 -261 -8 -263 -1 -2 -37 -2 -79 0 l-78 3 -3 278 c-2 244 0 283 15 314 24 52 80 75 158 68 33 -4 64 -10 68 -14z m328 -7 c48 -18 51 -18 60 -1 8 14 24 17 79 17 l70 0 0 -207 c0 -189 -2 -211 -20 -240 -36 -60 -65 -67 -244 -60 -95 4 -164 11 -172 18 -8 7 -14 31 -14 60 0 60 4 61 140 50 115 -9 143 -3 138 32 -3 21 -9 22 -118 27 -68 3 -125 10 -138 18 -42 24 -62 71 -62 146 0 94 24 132 100 160 27 10 129 -2 181 -20z m457 -156 c3 -191 -6 -177 115 -185 l77 -6 0 -75 0 -75 -55 6 c-34 3 -74 16 -101 32 l-44 26 -10 -26 c-9 -25 -13 -26 -77 -23 l-68 3 -3 248 -2 248 82 -3 83 -3 3 -167z"/>
 <path d="M3050 2841 c0 -67 4 -112 11 -116 22 -14 128 -18 144 -5 19 16 22 199 3 218 -7 7 -42 12 -85 12 l-73 0 0 -109z"/>
 <path d="M1184 2947 c-2 -7 -3 -62 -2 -123 l3 -109 80 0 80 0 0 120 0 120 -78 3 c-58 2 -79 -1 -83 -11z"/>
 <path d="M2064 2936 c-3 -8 -4 -23 -2 -33 3 -15 15 -18 76 -21 l73 -3 -3 28 c-3 31 -25 40 -96 42 -29 1 -44 -4 -48 -13z"/>
 </g>

</svg>